<svg width="20" height="14" viewBox="0 0 20 14" fill="none" xmlns="http://www.w3.org/2000/svg">
<path fill-rule="evenodd" clip-rule="evenodd" d="M19.9834 6.42144C19.9834 6.66721 19.8036 6.87104 19.5679 6.91081C19.5608 6.9187 19.5545 6.92704 19.5469 6.93453L13.1302 13.1947C12.9334 13.3864 12.6173 13.3836 12.4243 13.1876C12.2313 12.9917 12.2345 12.6771 12.4313 12.4849L18.137 6.91835L0.515532 6.91835C0.239921 6.91835 0.0164795 6.69566 0.0164795 6.42144C0.0164795 6.14702 0.239921 5.92453 0.515532 5.92453L18.0029 5.92453L12.4313 1.3517C12.2345 1.15964 12.2313 0.844964 12.4243 0.649128C12.6173 0.452945 12.9334 0.450066 13.1302 0.64203L19.5469 5.90859C19.5544 5.91599 19.5606 5.92423 19.5676 5.93202C19.8035 5.97164 19.9834 6.17542 19.9834 6.42144Z" fill="#717172"/>
</svg>
